<svg xmlns="http://www.w3.org/2000/svg" xmlns:xlink="http://www.w3.org/1999/xlink" width="303" height="62" viewBox="0 0 303 62">
  <defs>
    <clipPath id="clip-utaturlogo">
      <rect width="303" height="62"/>
    </clipPath>
  </defs>
  <g id="utaturlogo" clip-path="url(#clip-utaturlogo)">
    <g id="Group_34" data-name="Group 34">
      <g id="Group_30" data-name="Group 30" transform="translate(-20.215 -11)">
        <g id="Group_29" data-name="Group 29" transform="translate(81.192 16.94)">
          <g id="Group_23" data-name="Group 23" transform="translate(0 0)">
            <path id="Path_7" data-name="Path 7" d="M2.031,0H.813V-1.219H2.031ZM3.453-3.675A10.353,10.353,0,0,1,3.529-5.01,3.575,3.575,0,0,1,3.8-6.017a2.067,2.067,0,0,1,.52-.715,2.5,2.5,0,0,1,.825-.463,5.312,5.312,0,0,1,1.183-.252,14.79,14.79,0,0,1,1.6-.076,11.108,11.108,0,0,1,2.007.149,3.349,3.349,0,0,1,1.245.457,1.618,1.618,0,0,1,.635.781,3.2,3.2,0,0,1,.178,1.127H10.772q0-.235-.013-.438a.982.982,0,0,0-.092-.368.819.819,0,0,0-.251-.3,1.471,1.471,0,0,0-.489-.219,4.614,4.614,0,0,0-.8-.133q-.486-.044-1.2-.044-.813,0-1.369.056a4,4,0,0,0-.918.185,1.35,1.35,0,0,0-.559.345,1.3,1.3,0,0,0-.286.53,3.156,3.156,0,0,0-.1.738q-.016.424-.016.976t.016.957a3.088,3.088,0,0,0,.1.728,1.277,1.277,0,0,0,.286.524,1.394,1.394,0,0,0,.559.345,3.878,3.878,0,0,0,.918.188q.556.056,1.369.056.712,0,1.2-.049a4.652,4.652,0,0,0,.8-.14,1.448,1.448,0,0,0,.489-.226.829.829,0,0,0,.251-.308,1.072,1.072,0,0,0,.092-.384q.013-.21.013-.454h1.219a3.38,3.38,0,0,1-.178,1.155,1.641,1.641,0,0,1-.635.8,3.308,3.308,0,0,1-1.245.467A10.882,10.882,0,0,1,7.925.14a14.544,14.544,0,0,1-1.6-.077A5.367,5.367,0,0,1,5.144-.19a2.482,2.482,0,0,1-.825-.464,2.1,2.1,0,0,1-.52-.711,3.494,3.494,0,0,1-.27-1A10.089,10.089,0,0,1,3.453-3.675Zm9.959-.063a5.972,5.972,0,0,1,.241-1.845,2.413,2.413,0,0,1,.774-1.158,3.191,3.191,0,0,1,1.384-.6,10.559,10.559,0,0,1,2.069-.173,10.559,10.559,0,0,1,2.069.173,3.191,3.191,0,0,1,1.384.6,2.413,2.413,0,0,1,.774,1.158,5.972,5.972,0,0,1,.241,1.845,6.227,6.227,0,0,1-.241,1.881,2.494,2.494,0,0,1-.774,1.19,3.177,3.177,0,0,1-1.384.624A10.037,10.037,0,0,1,17.881.14a10.037,10.037,0,0,1-2.069-.182,3.177,3.177,0,0,1-1.384-.624,2.494,2.494,0,0,1-.774-1.19A6.227,6.227,0,0,1,13.413-3.738Zm1.219,0q0,.6.044,1.048a2.943,2.943,0,0,0,.168.766,1.339,1.339,0,0,0,.346.521,1.61,1.61,0,0,0,.584.32,3.891,3.891,0,0,0,.879.163q.517.044,1.228.044.609,0,1.089-.028a4,4,0,0,0,.838-.129,1.9,1.9,0,0,0,.613-.286,1.329,1.329,0,0,0,.409-.505,2.8,2.8,0,0,0,.229-.788,7.438,7.438,0,0,0,.073-1.127,7.088,7.088,0,0,0-.073-1.1A2.612,2.612,0,0,0,20.83-5.6a1.3,1.3,0,0,0-.409-.486,1.839,1.839,0,0,0-.613-.27,4.361,4.361,0,0,0-.838-.116Q18.491-6.5,17.881-6.5t-1.089.025a4.361,4.361,0,0,0-.838.116,1.839,1.839,0,0,0-.613.27,1.3,1.3,0,0,0-.409.486,2.612,2.612,0,0,0-.229.763A7.088,7.088,0,0,0,14.631-3.738ZM31.491,0H30.272V-4.126a6.128,6.128,0,0,0-.086-1.114,1.426,1.426,0,0,0-.349-.733,1.513,1.513,0,0,0-.743-.4,5.2,5.2,0,0,0-1.26-.124,5.766,5.766,0,0,0-1.409.143,2.277,2.277,0,0,0-.87.4,1.349,1.349,0,0,0-.441.619,2.479,2.479,0,0,0-.124.806V0H23.772V-7.312h1.219v1.155q.006-.019.057-.127a1.187,1.187,0,0,1,.181-.257,2.41,2.41,0,0,1,.355-.321,2.564,2.564,0,0,1,.584-.317,4.536,4.536,0,0,1,.866-.241,6.635,6.635,0,0,1,1.206-.1,7.2,7.2,0,0,1,1.19.086,3.365,3.365,0,0,1,.863.254,1.8,1.8,0,0,1,.584.419,1.979,1.979,0,0,1,.359.574,2.434,2.434,0,0,1,.336-.4,2.53,2.53,0,0,1,.638-.438,4.5,4.5,0,0,1,1.025-.352,6.769,6.769,0,0,1,1.5-.143,6.893,6.893,0,0,1,1.254.1,3.085,3.085,0,0,1,.885.292,1.769,1.769,0,0,1,.581.479,2.107,2.107,0,0,1,.336.663,3.919,3.919,0,0,1,.156.844q.038.467.038,1.012V0H36.772V-4.126a6.128,6.128,0,0,0-.086-1.114,1.426,1.426,0,0,0-.349-.733,1.513,1.513,0,0,0-.743-.4,5.2,5.2,0,0,0-1.26-.124,5.766,5.766,0,0,0-1.409.143,2.277,2.277,0,0,0-.87.4,1.349,1.349,0,0,0-.441.619,2.479,2.479,0,0,0-.124.806Z" transform="translate(201.971 53.018)" fill="#2d2d2d"/>
          </g>
        </g>
        <g id="Group_22" data-name="Group 22" transform="translate(21.215 11)">
          <path id="Path_2" data-name="Path 2" d="M298.095,339.014c1.31,4.532,3.531,7.24,8.556,9.11,4.912,1.828,13.377,2.415,22.689.754,8.891-1.587,17.784-.656,22.649,1.9,2.873,1.51,7.143,6.9,8.576,12,.361,2.254,1.26,3.078,1.356,4.773.192,3.41,1.952-2.945.682-9.429a16.444,16.444,0,0,0-5.474-8.735c-6.1-4.877-13.717-5.374-31.193-7.726a88.441,88.441,0,0,0-16.636-.838C304.007,341.055,301.721,341.554,298.095,339.014Zm6.754,10.768c4.387,3.333,14.172,4.445,20.65,3.634,6.079-.759,13.8-3.158,24.486.67,8.369,3,8.124,10.31,8.124,10.31-.2-1.293-2.938-3.836-7.539-4.773-6.329-1.288-12.7,2.259-27.539,1.29C308.221,359.946,301.23,347.032,304.849,349.782Zm3.671,8.611c1.4,2.041,7.224,5.8,17.221,6.764,10.123.978,17.907-2.675,24.305-2.055a9.645,9.645,0,0,1,8.55,6.421c-2.421-2.331-9.732-1.746-13.931-.309-3.786,1.3-10.824,4.183-18.73,3.26a21.65,21.65,0,0,1-14.232-7.748C308.4,360.852,307.124,356.351,308.52,358.393Zm27.92,18.3c8.926-1.391,9.941-5.961,18.683-5.506,5.918.308,7.48,6.381,7.48,6.381-1.057-1.343-4.1-3.466-9.168-1.98-5.008,1.466-7.053,6.616-16.185,7.178-13.346.82-15.777-5.687-17.481-9.164C323.666,376.8,330.376,377.636,336.44,376.691Zm28.087,2.963c-2.245-.269-3.857.057-6.658,2.7-2.359,2.225-3.873,5.655-8.579,6.077s-6.609-1.4-8.048-2.769c8.645-.313,9.781-4.979,14.442-7.4S364.527,379.654,364.527,379.654Z" transform="translate(-298.095 -339.014)" fill="red"/>
        </g>
      </g>
      <path id="Path_5" data-name="Path 5" d="M37.28-11.68Q37.28.44,20.6.44a39.511,39.511,0,0,1-8.32-.76A16.557,16.557,0,0,1,6.54-2.6,9.274,9.274,0,0,1,3.22-6.38a12.367,12.367,0,0,1-1.06-5.3V-26.76H10.4v15.08a6.709,6.709,0,0,0,.4,2.48,3.248,3.248,0,0,0,1.5,1.62,8.721,8.721,0,0,0,3.1.88,41.9,41.9,0,0,0,5.2.26,23.8,23.8,0,0,0,4-.28,6.682,6.682,0,0,0,2.56-.92,3.641,3.641,0,0,0,1.38-1.64,6.184,6.184,0,0,0,.42-2.4V-26.76h8.32ZM79.2-26.76,73.84-19.8H64.28V0H56V-19.8H43.44l5.36-6.96ZM88.6,0l5-6.88h9.22q1.3,0,2.26.08-.56-.72-1.3-1.82t-1.42-2.06l-4.8-7.08L85,0H75.2L92.36-24.2a9.253,9.253,0,0,1,2.12-2.08,5.413,5.413,0,0,1,3.24-.92,5.443,5.443,0,0,1,3.14.86A8.166,8.166,0,0,1,103-24.2L119.72,0Z" transform="translate(60.977 43.94)" fill="red"/>
      <path id="Path_6" data-name="Path 6" d="M35.76-26.76,30.4-19.8H20.84V0H12.56V-19.8H0l5.36-6.96ZM77.04-11.68Q77.04.44,60.36.44a39.511,39.511,0,0,1-8.32-.76A16.557,16.557,0,0,1,46.3-2.6a9.274,9.274,0,0,1-3.32-3.78,12.367,12.367,0,0,1-1.06-5.3V-26.76h8.24v15.08a6.709,6.709,0,0,0,.4,2.48,3.248,3.248,0,0,0,1.5,1.62,8.721,8.721,0,0,0,3.1.88,41.9,41.9,0,0,0,5.2.26,23.8,23.8,0,0,0,4-.28,6.682,6.682,0,0,0,2.56-.92A3.641,3.641,0,0,0,68.3-9.28a6.184,6.184,0,0,0,.42-2.4V-26.76h8.32ZM123.68,0H112.6l-5.96-7.08H93.92V0H85.64V-13.68h23.28a6.145,6.145,0,0,0,3.24-.8,2.463,2.463,0,0,0,1.32-2.2,2.605,2.605,0,0,0-1.2-2.34,6.141,6.141,0,0,0-3.36-.78H85.64l5.4-6.96h17.2a27.818,27.818,0,0,1,4.72.42,14.423,14.423,0,0,1,4.44,1.5,9.527,9.527,0,0,1,3.3,2.92A7.993,7.993,0,0,1,122-17.2a9.063,9.063,0,0,1-.48,2.96,8.27,8.27,0,0,1-1.38,2.52,8.208,8.208,0,0,1-2.2,1.9A9.022,9.022,0,0,1,115-8.72a18.933,18.933,0,0,1,1.52,1.32q.84.8,2.24,2.2Z" transform="translate(176.977 43.94)" fill="#2d2d2d"/>
    </g>
  </g>
</svg>
